<svg width="109" height="111" viewBox="0 0 109 111" fill="none" xmlns="http://www.w3.org/2000/svg">
<path d="M98.3624 87.158L95.535 58.5093L94.3253 46.3036L93.8856 41.858L92.901 31.8725L92.8749 31.6216L92.0894 23.6483L91.99 22.6714L91.6444 19.2078L91.2777 15.4986C90.995 12.6273 88.4817 10.5352 85.6697 10.8234L72.3279 12.1897L71.4584 12.2804L63.4104 13.1076L61.9286 13.2571L58.0119 13.6574L55.4775 13.9189L41.6694 15.3385L34.4067 16.0856L31.5896 16.3738L23.7876 17.1744L23.3634 17.2171L20.4259 17.5161L19.0016 17.66L15.3572 18.0337C12.5401 18.3219 10.4874 20.8835 10.7702 23.755L12.0321 36.5636L13.0113 46.469L13.1579 47.9421L13.5559 51.9662L13.6921 53.3431L14.6292 62.8216L15.2 68.6175L16.0484 77.2206L16.1846 78.603L17.0223 87.1208L17.2318 89.2289L17.462 91.561L17.8444 95.3982C18.1271 98.2697 20.6406 100.362 23.4577 100.074L37.9256 98.5899L51.5922 97.1861L54.2102 96.9194L63.824 95.9319L67.9294 95.5104L76.7525 94.603L78.784 94.395L85.3398 93.7225L85.6436 93.6905L88.1518 93.4344L90.0054 93.2421L93.7651 92.8578C96.5822 92.5697 98.6348 90.008 98.3521 87.142L98.3624 87.158ZM93.5765 89.6504L90.5447 89.96L88.5864 90.1628L86.3767 90.3869L86.1883 90.4083L78.3913 91.2087L68.7461 92.2014L55.8125 93.5305L53.0794 93.8133L45.6541 94.5764L39.4754 95.2117L33.8412 95.788L23.0388 96.8928C22.0281 96.9995 21.1275 96.2469 21.0228 95.2168L20.7139 92.1161L20.5516 90.4936L20.473 89.6984L20.274 87.6757L19.4991 79.8197L18.1271 65.9329L17.1742 56.257L16.6035 50.4771L15.6922 41.2336L15.5299 39.6003L14.912 33.3562L13.9223 23.3172C13.8176 22.2873 14.556 21.364 15.5666 21.2626L18.4831 20.9636L19.3891 20.8729L22.8451 20.5207L31.0921 19.6722L42.727 18.4767L53.8175 17.3398L67.3533 15.9523L70.1546 15.664L75.9198 15.0716L79.2082 14.7354L86.1043 14.0256C87.115 13.9189 88.0157 14.6714 88.1204 15.7014L88.4135 18.6687L88.7277 21.839L88.8534 23.1092L89.5865 30.4955L90.4924 39.6589L91.9271 54.2182L92.3566 58.5465L93.5765 70.875L95.2259 87.5958C95.3306 88.6257 94.5925 89.5436 93.5818 89.6504H93.5765Z" fill="#7521B9"/>
<path d="M15.2166 68.6276V68.6225L13.8813 55.1039L13.5672 51.9763L12.6822 57.5694L9.25244 79.2054L13.2477 81.0362L15.2166 68.6276Z" fill="#0084EE"/>
<path d="M17.1818 56.2503L19.0564 44.4449L21.1612 31.1879L22.2451 24.3564L22.4178 23.2676L22.8527 20.5139L23.3081 17.6425L23.3763 17.2155L23.9103 13.8319C23.9103 13.7999 23.9207 13.7679 23.9313 13.7359C24.0883 13.0261 24.7691 12.5511 25.4917 12.6685L26.9892 12.914L28.7852 8.84189L26.3609 8.4416C23.1929 7.9186 20.2134 10.1121 19.7055 13.3356L19.6061 13.9494L19.0196 17.6533L18.496 20.9515L17.9356 24.4952L17.5743 26.7846L15.7312 38.414L15.5479 39.5829L16.5375 49.6377L17.1922 56.2394L17.1818 56.2503Z" fill="#0084EE"/>
<path d="M55.6757 93.5022L41.3965 91.1486L31.8664 89.5794L29.2692 89.1524L26.8657 88.7575L25.5933 88.5495L24.1011 88.304L20.2785 87.6742L18.7705 87.4232L17.0425 87.1405L14.1836 86.6709L13.7647 86.6014C13.0106 86.4786 12.5027 85.7581 12.6232 84.9895L12.9112 83.1696L8.91589 81.3391L8.47604 84.1036C7.96288 87.3325 10.115 90.3694 13.2777 90.887L13.8799 90.9884L17.4771 91.5807L20.7133 92.1146L26.3213 93.0378L29.929 93.6355L38.9669 95.1246L39.2914 95.1779L39.4694 95.2099L40.5377 95.1032L40.9776 95.0605L43.2764 94.8256L47.9262 94.3506L55.8119 93.5394L55.6757 93.5182V93.5022Z" fill="#0084EE"/>
<path d="M93.1022 66.118L92.4163 59.1694L91.9295 54.2219V54.2379L90.6779 62.0993L88.3216 76.9362L87.1329 84.4559L87.07 84.8456L86.1904 90.396L85.6668 93.6942L85.4259 95.2366L85.1589 96.9285C85.0385 97.6969 84.3262 98.2148 83.5775 98.092L81.3887 97.7343L81.373 97.7716L79.5928 101.807L82.7083 102.319C85.2008 102.73 87.5728 101.459 88.7248 99.3302C89.0389 98.7536 89.259 98.1132 89.3688 97.4247L90.0286 93.2567L90.5522 89.9583L91.4634 84.2158L91.9242 81.3019L93.5736 70.8841V70.8732L93.516 70.2649L93.1075 66.1234L93.1022 66.118Z" fill="#0084EE"/>
<path d="M95.7817 19.8851L95.6195 19.8585L91.6505 19.2075L88.4143 18.6738L84.3091 17.9959L83.7331 17.8998L70.1554 15.6637H70.1503L69.6686 15.5836L61.898 14.3027L58.0177 13.6623L53.5617 12.9258L30.8731 9.18994L29.0718 13.262L41.6755 15.3381L53.8183 17.3395L66.2229 19.3835L76.7584 21.1233L84.5239 22.4043L84.6023 22.4149L88.8438 23.114L92.0797 23.6477L92.2212 23.6746L95.2843 24.1762C95.478 24.2082 95.6562 24.2829 95.8132 24.3842C96.2582 24.6778 96.5148 25.2169 96.4258 25.7878L96.1169 27.7253L100.112 29.5558L100.568 26.674C101.081 23.4451 98.9287 20.4082 95.766 19.8905L95.7817 19.8851Z" fill="#0084EE"/>
<path d="M67.946 95.5273L53.4206 97.0164L51.6089 97.203L54.9128 97.7476L77.4969 101.467L79.2929 97.3953L68.0507 95.5434L67.946 95.5273Z" fill="#0084EE"/>
<path d="M93.8959 41.8413L93.8906 41.8574L95.1475 54.5701L95.54 58.5035V58.4927L96.5297 52.2377L99.7973 31.6799L95.7966 29.8491L93.8959 41.8413Z" fill="#0084EE"/>
<path d="M105.215 31.8868L103.701 31.1929L92.7577 26.1761L85.8721 23.0168L73.3206 17.2634L62.2669 12.1934L37.5516 0.857641C35.143 -0.247123 32.3153 0.846967 31.2316 3.30196L30.2419 5.54351L25.5919 16.0733L23.11 21.6985L18.2351 32.7407L12.1191 46.59L0.782565 72.2662C-0.296106 74.7214 0.772093 77.6032 3.18079 78.708L5.31719 79.6901L16.6643 84.8934L37.3997 94.4041L43.4058 97.1578L46.291 98.4815L70.8491 109.742C73.2577 110.847 76.0854 109.753 77.1694 107.298L77.3316 106.93L83.1962 93.6462L86.8617 85.3418L95.1191 66.6357L96.3707 63.7965L107.608 38.3392C108.692 35.8841 107.618 33.0022 105.21 31.8974L105.215 31.8868ZM105.712 37.5652L96.156 59.2121L92.0402 68.5357L87.935 77.8275L81.1541 93.1872L75.4467 106.108L75.3417 106.353C74.6976 107.811 73.0221 108.456 71.5979 107.8L45.0813 95.6421L38.1538 92.4666L16.947 82.7427L5.93506 77.6939L4.10238 76.8561C2.67286 76.1996 2.03929 74.4919 2.67811 73.0348L12.9045 49.867L18.5807 37.0155L23.1047 26.7687L27.8278 16.0733L32.3835 5.75698L33.0486 4.24127C33.6926 2.78428 35.3682 2.1385 36.7924 2.79496L58.6643 12.8285L71.8859 18.8913L79.9446 22.5844L92.1713 28.1935L103.204 33.2529L104.283 33.7494C105.712 34.4004 106.346 36.1135 105.707 37.5652H105.712Z" fill="#2CAAFF"/>
<path d="M41.6763 15.3399L53.8193 17.3413L70.1564 15.6654L58.0187 13.6641L41.6763 15.3399Z" fill="#0084EE"/>
<path d="M15.5363 39.6016L14.4627 46.3421L13.5674 51.9781L13.8815 55.1054L15.2168 68.624L17.1804 56.2583V56.2529L16.5259 49.6511L15.5363 39.6016Z" fill="#0084EE"/>
<path d="M67.951 95.5264L55.8186 93.5249L55.6824 93.5037L47.8594 94.2989L40.9108 95.0085L39.3032 95.1742L39.4815 95.2008L42.1781 95.6492L46.7439 96.3963L51.6138 97.2021L53.4308 97.0153L68.0557 95.5425L67.951 95.5264Z" fill="#0084EE"/>
<path d="M93.8913 41.8425L93.8859 41.8586L91.9277 54.2296L91.9224 54.2457L92.4145 59.1823L93.5667 70.8861L93.5718 70.8755L93.7551 69.7121V69.7069L95.0117 61.792L95.5353 58.5044V58.4939L95.1479 54.5659L93.8913 41.8425Z" fill="#0084EE"/>
<path d="M26.9033 12.9014L29.1078 13.2643L30.9091 9.19217L28.6417 8.8186L26.9033 12.9014Z" fill="#0084EE"/>
<path d="M9.3239 78.7612L8.83691 81.8459L12.8374 83.6392L13.3559 80.3622L9.3239 78.7612Z" fill="#0084EE"/>
<path d="M96.1889 27.2893L95.6914 30.5182L99.7182 32.1353L100.221 28.9598L96.1889 27.2893Z" fill="#0084EE"/>
<path d="M81.6013 97.7737L79.8994 101.856L77.1138 101.397L78.9987 97.3413L81.6013 97.7737Z" fill="#0084EE"/>
<path d="M23.1053 21.6929L18.2304 32.7348L12.1196 46.5844L12.9155 49.8612L18.5864 37.0099L23.1106 26.7629L23.1053 21.6929Z" fill="#2CAAFF"/>
<path d="M73.3192 17.26L62.2655 12.1899L58.6733 12.825L71.8897 18.8879L73.3192 17.26Z" fill="#2CAAFF"/>
<path d="M96.1546 59.208L92.0391 68.5316L87.9337 77.8234L86.8604 85.3326L95.1178 66.6264L96.3694 63.7872L96.1546 59.208Z" fill="#2CAAFF"/>
<path d="M20.4809 89.6918L20.2662 87.477L17.0249 86.9434L17.2554 89.2435L17.5016 91.7679L20.7375 92.3015L20.5595 90.4871L20.4809 89.6918Z" fill="#7521B9"/>
<path d="M86.0064 90.425L85.4409 93.734L88.169 93.451L90.2583 93.2324L90.6719 89.9448L88.5879 90.1635L86.0064 90.425Z" fill="#7521B9"/>
<path d="M18.7552 17.6928L18.2212 20.9964L19.3888 20.8737L23.1276 20.4894L23.693 17.186L20.436 17.5168L18.7552 17.6928Z" fill="#7521B9"/>
<path d="M88.8923 23.4346L92.1178 23.899L91.9974 22.6715L91.6206 18.8769L88.374 18.3005L88.73 21.8442L88.8923 23.4346Z" fill="#7521B9"/>
<path d="M45.0776 95.6388L38.1501 92.4631L37.396 94.3952L43.4021 97.1491L46.2871 98.4726L47.9522 96.9568L45.0776 95.6388Z" fill="#2CAAFF"/>
</svg>
